<?xml version="1.0" encoding="UTF-8" ?>
<!DOCTYPE svg PUBLIC "-//W3C//DTD SVG 1.1//EN" "http://www.w3.org/Graphics/SVG/1.1/DTD/svg11.dtd">
<svg width="256pt" height="256pt" viewBox="0 0 256 256" version="1.1" xmlns="http://www.w3.org/2000/svg">
<g id="#ffffffff">
<path fill="#ffffff" opacity="1.00" d=" M 0.00 34.25 C 5.29 54.11 15.75 73.02 31.53 86.46 C 47.25 99.60 68.66 105.82 88.96 102.83 C 106.15 100.52 121.98 92.13 135.33 81.32 C 137.21 79.55 139.71 79.16 142.18 79.52 C 147.71 86.56 153.42 93.48 159.93 99.66 C 166.31 96.25 173.56 94.63 179.60 90.54 C 182.81 88.39 185.11 84.72 189.04 83.78 C 191.72 83.27 193.50 85.91 194.47 88.01 C 195.04 90.83 192.48 92.94 190.92 94.95 C 183.74 102.58 172.36 102.97 164.33 109.30 C 161.21 111.36 159.13 114.57 156.05 116.67 C 154.67 115.90 153.21 115.20 152.11 114.02 C 146.20 108.04 140.43 101.93 134.94 95.56 C 125.51 102.45 115.21 108.24 104.24 112.29 C 87.41 118.54 68.41 120.31 51.21 114.44 C 29.71 107.59 12.28 91.53 0.00 72.99 L 0.00 34.25 Z" />
<path fill="#ffffff" opacity="1.00" d=" M 0.00 125.45 C 18.97 142.52 44.36 152.55 69.95 152.36 C 86.73 152.04 103.71 146.64 116.64 135.74 C 120.67 132.64 123.79 128.13 128.85 126.60 C 130.88 127.47 133.79 128.38 133.91 131.03 C 133.39 136.07 129.02 139.35 125.49 142.46 C 107.95 157.90 84.51 166.19 61.20 165.92 C 60.29 165.82 58.94 166.03 58.84 167.17 C 57.93 172.30 57.44 177.48 56.91 182.66 C 55.02 207.05 54.99 231.54 55.17 256.00 L 42.21 256.00 C 41.94 225.55 41.90 194.92 46.82 164.79 C 30.10 161.87 14.41 154.81 0.00 146.01 L 0.00 125.45 Z" />
</g>
</svg>
